<?xml version="1.0" encoding="UTF-8" standalone="no"?>
<!-- Created with Inkscape (http://www.inkscape.org/) -->

<svg
   xmlns:dc="http://purl.org/dc/elements/1.1/"
   xmlns:cc="http://creativecommons.org/ns#"
   xmlns:rdf="http://www.w3.org/1999/02/22-rdf-syntax-ns#"
   xmlns:svg="http://www.w3.org/2000/svg"
   xmlns="http://www.w3.org/2000/svg"
   xmlns:sodipodi="http://sodipodi.sourceforge.net/DTD/sodipodi-0.dtd"
   xmlns:inkscape="http://www.inkscape.org/namespaces/inkscape"
   width="210mm"
   height="297mm"
   viewBox="0 0 210 297"
   version="1.1"
   id="svg8"
   inkscape:version="0.92.3 (unknown)"
   sodipodi:docname="slim_triangle.svg">
  <defs
     id="defs2">
    <marker
       inkscape:stockid="Arrow1Send"
       orient="auto"
       refY="0.0"
       refX="0.0"
       id="Arrow1Send"
       style="overflow:visible;"
       inkscape:isstock="true">
      <path
         id="path944"
         d="M 0.0,0.0 L 5.0,-5.0 L -12.5,0.0 L 5.0,5.0 L 0.0,0.0 z "
         style="fill-rule:evenodd;stroke:#000000;stroke-width:1pt;stroke-opacity:1;fill:#000000;fill-opacity:1"
         transform="scale(0.2) rotate(180) translate(6,0)" />
    </marker>
    <marker
       inkscape:stockid="Arrow1Lstart"
       orient="auto"
       refY="0.0"
       refX="0.0"
       id="Arrow1Lstart"
       style="overflow:visible"
       inkscape:isstock="true">
      <path
         id="path929"
         d="M 0.0,0.0 L 5.0,-5.0 L -12.5,0.0 L 5.0,5.0 L 0.0,0.0 z "
         style="fill-rule:evenodd;stroke:#000000;stroke-width:1pt;stroke-opacity:1;fill:#000000;fill-opacity:1"
         transform="scale(0.8) translate(12.5,0)" />
    </marker>
    <marker
       inkscape:stockid="Arrow1Sstart"
       orient="auto"
       refY="0.0"
       refX="0.0"
       id="Arrow1Sstart"
       style="overflow:visible"
       inkscape:isstock="true">
      <path
         id="path941"
         d="M 0.0,0.0 L 5.0,-5.0 L -12.5,0.0 L 5.0,5.0 L 0.0,0.0 z "
         style="fill-rule:evenodd;stroke:#000000;stroke-width:1pt;stroke-opacity:1;fill:#000000;fill-opacity:1"
         transform="scale(0.2) translate(6,0)" />
    </marker>
  </defs>
  <sodipodi:namedview
     id="base"
     pagecolor="#ffffff"
     bordercolor="#666666"
     borderopacity="1.0"
     inkscape:pageopacity="0.0"
     inkscape:pageshadow="2"
     inkscape:zoom="4"
     inkscape:cx="287.03765"
     inkscape:cy="934.21581"
     inkscape:document-units="mm"
     inkscape:current-layer="layer2"
     showgrid="false"
     showguides="false"
     inkscape:window-width="1920"
     inkscape:window-height="1026"
     inkscape:window-x="0"
     inkscape:window-y="25"
     inkscape:window-maximized="1" />
  <metadata
     id="metadata5">
    <rdf:RDF>
      <cc:Work
         rdf:about="">
        <dc:format>image/svg+xml</dc:format>
        <dc:type
           rdf:resource="http://purl.org/dc/dcmitype/StillImage" />
        <dc:title></dc:title>
      </cc:Work>
    </rdf:RDF>
  </metadata>
  <g
     inkscape:label="Layer 1"
     inkscape:groupmode="layer"
     id="layer1">
    <path
       style="fill:none;fill-rule:evenodd;stroke:#000000;stroke-width:0.26458332px;stroke-linecap:butt;stroke-linejoin:miter;stroke-opacity:1"
       d="M 31.56101,59.252976 C 60.496859,46.614478 60.719167,52.322645 72.571427,27.691963 60.711734,52.301501 60.89958,49.139328 90.147321,59.819939 61.010396,49.334888 64.790959,46.981583 31.56101,59.252976 Z"
       id="path819"
       inkscape:connector-curvature="0"
       sodipodi:nodetypes="cccc" />
  </g>
  <g
     inkscape:groupmode="layer"
     id="layer3"
     inkscape:label="red"
     style="display:inline">
    <path
       id="path846"
       style="fill:none;fill-rule:evenodd;stroke:#ff0000;stroke-width:0.26499999;stroke-linecap:butt;stroke-linejoin:miter;stroke-miterlimit:4;stroke-dasharray:none;stroke-opacity:1"
       d="m 32.960505,64.550891 c -2.953573,0.832014 -5.76812,-0.847843 -6.639679,-3.69228 -0.871559,-2.844436 0.626743,-5.964996 3.617947,-6.839455 21.066536,-4.651153 33.787376,-13.836321 37.353342,-28.022905 0.796995,-2.814589 3.67137,-4.508193 6.526257,-3.842703 2.854887,0.66549 4.959722,3.764556 4.155955,6.333382 -8.933183,23.507877 -17.906216,25.966096 -45.013822,36.063961 z"
       inkscape:connector-curvature="0"
       sodipodi:nodetypes="csccscc" />
  </g>
  <g
     inkscape:groupmode="layer"
     id="layer2"
     inkscape:label="blue"
     style="display:inline">
    <path
       id="path865"
       style="fill:none;fill-rule:evenodd;stroke:#0c00ff;stroke-width:0.26458332px;stroke-linecap:butt;stroke-linejoin:miter;stroke-opacity:1"
       d="m 71.662415,22.085403 c 1.974998,-0.331281 3.97378,0.438536 5.216323,2.00903 1.242543,1.570495 1.531917,3.69276 0.771411,5.502403 -0.717548,1.707423 -2.707044,6.613593 -4.043107,8.965401 -3.82188,6.727477 -2.826728,8.982587 3.294607,11.063603 4.134754,1.405656 14.49388,4.685545 14.49388,4.685545 2.35776,0.94908 3.123334,1.791715 3.667945,3.760737 0.544611,1.969022 -0.04855,4.07762 -1.539857,5.473924 -1.491303,1.396303 -3.634327,1.849594 -5.170149,1.326772 C 88.746535,65.020905 69.905759,57.795487 64.414396,54.864733 59.988274,52.5025 59.5004,49.051297 60.476191,45.409597 c 0.93047,-3.472561 6.326576,-17.630307 6.910934,-19.734877 0.532792,-1.918853 2.300292,-3.258036 4.27529,-3.589317 z"
       inkscape:connector-curvature="0"
       sodipodi:nodetypes="ssssscsscssss" />
    <path
       style="fill:none;fill-rule:evenodd;stroke:#000000;stroke-width:0.26499999;stroke-linecap:butt;stroke-linejoin:miter;stroke-miterlimit:4;stroke-dasharray:none;stroke-opacity:1;marker-start:url(#Arrow1Sstart);marker-end:url(#Arrow1Send)"
       d="m 79.705728,56.82448 -1.25677,3.373438"
       id="path927"
       inkscape:connector-curvature="0"
       sodipodi:nodetypes="cc" />
    <text
       xml:space="preserve"
       style="font-style:normal;font-weight:normal;font-size:10.58333302px;line-height:125%;font-family:sans-serif;letter-spacing:0px;word-spacing:0px;fill:#000000;fill-opacity:1;stroke:none;stroke-width:0.26458332px;stroke-linecap:butt;stroke-linejoin:miter;stroke-opacity:1"
       x="79.242706"
       y="60.363285"
       id="text1661"><tspan
         sodipodi:role="line"
         id="tspan1659"
         x="79.242706"
         y="60.363285"
         style="font-size:4.23333311px;stroke-width:0.26458332px">$\delta$</tspan></text>
  </g>
</svg>
