<?xml version="1.0" encoding="UTF-8" standalone="no"?>
<!-- Created with Inkscape (http://www.inkscape.org/) -->

<svg
   xmlns:dc="http://purl.org/dc/elements/1.1/"
   xmlns:cc="http://creativecommons.org/ns#"
   xmlns:rdf="http://www.w3.org/1999/02/22-rdf-syntax-ns#"
   xmlns:svg="http://www.w3.org/2000/svg"
   xmlns="http://www.w3.org/2000/svg"
   xmlns:sodipodi="http://sodipodi.sourceforge.net/DTD/sodipodi-0.dtd"
   xmlns:inkscape="http://www.inkscape.org/namespaces/inkscape"
   width="113.5546mm"
   height="45.523491mm"
   viewBox="0 0 113.5546 45.523491"
   version="1.1"
   id="svg6537"
   inkscape:version="0.92.3 (unknown)"
   sodipodi:docname="surface.svg">
  <defs
     id="defs6531" />
  <sodipodi:namedview
     id="base"
     pagecolor="#ffffff"
     bordercolor="#666666"
     borderopacity="1.0"
     inkscape:pageopacity="0.0"
     inkscape:pageshadow="2"
     inkscape:zoom="1.979899"
     inkscape:cx="272.8695"
     inkscape:cy="74.229828"
     inkscape:document-units="mm"
     inkscape:current-layer="layer1"
     showgrid="false"
     inkscape:window-width="1920"
     inkscape:window-height="1026"
     inkscape:window-x="0"
     inkscape:window-y="25"
     inkscape:window-maximized="1"
     fit-margin-top="5"
     fit-margin-bottom="5"
     fit-margin-left="5"
     fit-margin-right="5" />
  <metadata
     id="metadata6534">
    <rdf:RDF>
      <cc:Work
         rdf:about="">
        <dc:format>image/svg+xml</dc:format>
        <dc:type
           rdf:resource="http://purl.org/dc/dcmitype/StillImage" />
        <dc:title></dc:title>
      </cc:Work>
    </rdf:RDF>
  </metadata>
  <g
     inkscape:label="Layer 1"
     inkscape:groupmode="layer"
     id="layer1"
     transform="translate(3.4311354,3.5675673)">
    <path
       style="fill:none;fill-rule:evenodd;stroke:#000000;stroke-width:0.5;stroke-linecap:butt;stroke-linejoin:miter;stroke-miterlimit:4;stroke-dasharray:none;stroke-opacity:1"
       d="M 28.503039,3.019878 C 44.435631,2.8439819 47.087718,13.401669 54.252187,13.41807 62.511456,13.436908 73.338602,0.46320789 85.459357,2.2279499 116.27649,6.7148135 105.53144,36.978344 82.895509,35.405051 68.544741,34.407613 67.582362,25.917279 55.144404,24.881729 44.622027,24.005666 43.62826,34.961945 30.907721,36.062817 -14.286252,39.974034 0.79271246,3.3257955 28.503039,3.019878 Z"
       id="path7223"
       inkscape:connector-curvature="0"
       sodipodi:nodetypes="sssssss" />
    <path
       id="path4197-6-1"
       style="fill:none;stroke:#000000;stroke-width:0.5;stroke-miterlimit:4;stroke-dasharray:none;stroke-opacity:1"
       sodipodi:type="arc"
       sodipodi:cx="82.88768"
       sodipodi:cy="15.246991"
       sodipodi:rx="13.216591"
       sodipodi:ry="5.3395276"
       sodipodi:start="0.085948362"
       sodipodi:end="2.9191051"
       d="M 96.055485,15.70535 A 13.216591,5.3395276 0 0 1 83.789271,20.574081 13.216591,5.3395276 0 0 1 69.996857,16.425193"
       sodipodi:open="true" />
    <path
       sodipodi:open="true"
       d="m 74.441506,19.085947 a 9.4521046,5.1857152 0 0 1 8.911008,-3.425423 9.4521046,5.1857152 0 0 1 8.884342,3.44621"
       sodipodi:end="5.9411135"
       sodipodi:start="3.4879226"
       sodipodi:ry="5.1857152"
       sodipodi:rx="9.4521046"
       sodipodi:cy="20.846228"
       sodipodi:cx="83.33239"
       sodipodi:type="arc"
       id="path4209-0-8"
       style="fill:none;stroke:#000000;stroke-width:0.5;stroke-miterlimit:4;stroke-dasharray:none;stroke-opacity:1" />
    <path
       id="path4197-6-1-2"
       style="fill:none;stroke:#000000;stroke-width:0.5;stroke-miterlimit:4;stroke-dasharray:none;stroke-opacity:1"
       sodipodi:type="arc"
       sodipodi:cx="26.438482"
       sodipodi:cy="16.785072"
       sodipodi:rx="13.216591"
       sodipodi:ry="5.3395281"
       sodipodi:start="0.085948362"
       sodipodi:end="2.9191051"
       d="M 39.606287,17.243431 A 13.216591,5.3395281 0 0 1 27.340073,22.112162 13.216591,5.3395281 0 0 1 13.54766,17.963274"
       sodipodi:open="true" />
    <path
       sodipodi:open="true"
       d="m 17.992296,20.624031 a 9.4521046,5.1857152 0 0 1 8.911009,-3.425423 9.4521046,5.1857152 0 0 1 8.884342,3.44621"
       sodipodi:end="5.9411135"
       sodipodi:start="3.4879226"
       sodipodi:ry="5.1857152"
       sodipodi:rx="9.4521046"
       sodipodi:cy="22.384312"
       sodipodi:cx="26.883181"
       sodipodi:type="arc"
       id="path4209-0-8-3"
       style="fill:none;stroke:#000000;stroke-width:0.5;stroke-miterlimit:4;stroke-dasharray:none;stroke-opacity:1" />
    <path
       d="m 28.320233,17.252405 a 3.7297115,7.1305261 0 0 1 -3.254365,-3.551663 3.7297115,7.1305261 0 0 1 0.0021,-7.1641104 3.7297115,7.1305261 0 0 1 3.256412,-3.5448013"
       sodipodi:open="true"
       sodipodi:end="4.7211048"
       sodipodi:start="1.563183"
       sodipodi:ry="7.1305261"
       sodipodi:rx="3.7297115"
       sodipodi:cy="10.122086"
       sodipodi:cx="28.291838"
       sodipodi:type="arc"
       id="path7380"
       style="opacity:1;fill:none;stroke:#d80000;stroke-width:0.5;stroke-miterlimit:4;stroke-dasharray:none;stroke-opacity:1" />
    <path
       d="m 28.324345,2.9918353 a 3.7297115,7.1305261 0 0 1 3.266574,3.5256227 3.7297115,7.1305261 0 0 1 0.01129,7.171522 3.7297115,7.1305261 0 0 1 -3.25542,3.563133"
       sodipodi:open="true"
       sodipodi:end="1.5777638"
       sodipodi:start="4.6994049"
       sodipodi:ry="7.1305261"
       sodipodi:rx="3.7297115"
       sodipodi:cy="10.12176"
       sodipodi:cx="28.37277"
       sodipodi:type="arc"
       id="path7380-7"
       style="opacity:1;fill:none;stroke:#d80000;stroke-width:0.5;stroke-miterlimit:4;stroke-dasharray:0.5,0.5;stroke-dashoffset:0.71177506;stroke-opacity:1" />
    <path
       d="m 83.137455,2.0325887 a 4.6371331,6.8528318 0 0 1 4.061317,3.3883193 4.6371331,6.8528318 0 0 1 0.01403,6.892232 4.6371331,6.8528318 0 0 1 -4.047448,3.424368"
       sodipodi:open="true"
       sodipodi:end="1.5777638"
       sodipodi:start="4.6994049"
       sodipodi:ry="6.8528318"
       sodipodi:rx="4.6371331"
       sodipodi:cy="8.8848429"
       sodipodi:cx="83.197662"
       sodipodi:type="arc"
       id="path7380-7-9"
       style="opacity:1;fill:none;stroke:#d80000;stroke-width:0.5;stroke-miterlimit:4;stroke-dasharray:0.5,0.5;stroke-dashoffset:1.28608763;stroke-opacity:1" />
    <path
       d="m -83.264561,2.0325887 a 4.6371331,6.8528318 0 0 1 4.061318,3.3883193 4.6371331,6.8528318 0 0 1 0.01403,6.892232 4.6371331,6.8528318 0 0 1 -4.047449,3.424368"
       sodipodi:open="true"
       sodipodi:end="1.5777638"
       sodipodi:start="4.6994049"
       sodipodi:ry="6.8528318"
       sodipodi:rx="4.6371331"
       sodipodi:cy="8.8848429"
       sodipodi:cx="-83.204353"
       sodipodi:type="arc"
       id="path7380-7-9-2"
       style="opacity:1;fill:none;stroke:#d80000;stroke-width:0.5;stroke-miterlimit:4;stroke-dasharray:none;stroke-dashoffset:1.70704997;stroke-opacity:1"
       transform="scale(-1,1)" />
    <path
       d="m 54.472938,13.515803 a 3.4816706,5.6629367 0 0 1 3.049334,2.799987 3.4816706,5.6629367 0 0 1 0.01053,5.695495 3.4816706,5.6629367 0 0 1 -3.038922,2.829777"
       sodipodi:open="true"
       sodipodi:end="1.5777638"
       sodipodi:start="4.6994049"
       sodipodi:ry="5.6629367"
       sodipodi:rx="3.4816706"
       sodipodi:cy="19.178263"
       sodipodi:cx="54.518143"
       sodipodi:type="arc"
       id="path7380-7-9-28"
       style="opacity:1;fill:none;stroke:#d80000;stroke-width:0.5;stroke-miterlimit:4;stroke-dasharray:0.5,0.5;stroke-dashoffset:1.2133596;stroke-opacity:1" />
    <path
       d="m -54.500916,13.459144 a 3.4816706,5.6912646 0 0 1 3.049334,2.813993 3.4816706,5.6912646 0 0 1 0.01053,5.723986 3.4816706,5.6912646 0 0 1 -3.038922,2.843933"
       sodipodi:open="true"
       sodipodi:end="1.5777638"
       sodipodi:start="4.6994049"
       sodipodi:ry="5.6912646"
       sodipodi:rx="3.4816706"
       sodipodi:cy="19.149929"
       sodipodi:cx="-54.455711"
       sodipodi:type="arc"
       id="path7380-7-9-2-9"
       style="opacity:1;fill:none;stroke:#d80000;stroke-width:0.5;stroke-miterlimit:4;stroke-dasharray:none;stroke-dashoffset:1.70704997;stroke-opacity:1"
       transform="scale(-1,1)" />
    <path
       style="fill:none;fill-rule:evenodd;stroke:#0000e5;stroke-width:0.5;stroke-linecap:butt;stroke-linejoin:miter;stroke-miterlimit:4;stroke-dasharray:none;stroke-opacity:1"
       d="M 11.733138,14.107523 C 7.1581266,18.151316 4.9343884,25.212147 12.63964,27.365086 20.34489,29.518023 38.530953,31.327042 42.497486,25.495429 49.864731,14.664073 38.413031,11.662393 29.976455,9.7449883 24.449724,8.4889124 16.119756,10.311054 11.733138,14.107523 Z"
       id="path7456"
       inkscape:connector-curvature="0"
       sodipodi:nodetypes="csscc" />
  </g>
</svg>
