<?xml version="1.0" encoding="UTF-8" standalone="no"?>
<!-- Created with Inkscape (http://www.inkscape.org/) -->

<svg
   xmlns:dc="http://purl.org/dc/elements/1.1/"
   xmlns:cc="http://creativecommons.org/ns#"
   xmlns:rdf="http://www.w3.org/1999/02/22-rdf-syntax-ns#"
   xmlns:svg="http://www.w3.org/2000/svg"
   xmlns="http://www.w3.org/2000/svg"
   xmlns:sodipodi="http://sodipodi.sourceforge.net/DTD/sodipodi-0.dtd"
   xmlns:inkscape="http://www.inkscape.org/namespaces/inkscape"
   width="210mm"
   height="297mm"
   viewBox="0 0 210 297"
   version="1.1"
   id="svg8"
   inkscape:version="0.92.3 (unknown)"
   sodipodi:docname="geodesic_in_thin_part.svg">
  <defs
     id="defs2">
    <marker
       inkscape:stockid="Arrow1Send"
       orient="auto"
       refY="0.0"
       refX="0.0"
       id="Arrow1Send"
       style="overflow:visible;"
       inkscape:isstock="true">
      <path
         id="path1500"
         d="M 0.0,0.0 L 5.0,-5.0 L -12.5,0.0 L 5.0,5.0 L 0.0,0.0 z "
         style="fill-rule:evenodd;stroke:#000000;stroke-width:1pt;stroke-opacity:1;fill:#000000;fill-opacity:1"
         transform="scale(0.2) rotate(180) translate(6,0)" />
    </marker>
    <marker
       inkscape:stockid="Arrow1Sstart"
       orient="auto"
       refY="0.0"
       refX="0.0"
       id="Arrow1Sstart"
       style="overflow:visible"
       inkscape:isstock="true">
      <path
         id="path1497"
         d="M 0.0,0.0 L 5.0,-5.0 L -12.5,0.0 L 5.0,5.0 L 0.0,0.0 z "
         style="fill-rule:evenodd;stroke:#000000;stroke-width:1pt;stroke-opacity:1;fill:#000000;fill-opacity:1"
         transform="scale(0.2) translate(6,0)" />
    </marker>
    <marker
       inkscape:stockid="Arrow1Lstart"
       orient="auto"
       refY="0.0"
       refX="0.0"
       id="Arrow1Lstart"
       style="overflow:visible"
       inkscape:isstock="true">
      <path
         id="path1485"
         d="M 0.0,0.0 L 5.0,-5.0 L -12.5,0.0 L 5.0,5.0 L 0.0,0.0 z "
         style="fill-rule:evenodd;stroke:#000000;stroke-width:1pt;stroke-opacity:1;fill:#000000;fill-opacity:1"
         transform="scale(0.8) translate(12.5,0)" />
    </marker>
  </defs>
  <sodipodi:namedview
     id="base"
     pagecolor="#ffffff"
     bordercolor="#666666"
     borderopacity="1.0"
     inkscape:pageopacity="0.0"
     inkscape:pageshadow="2"
     inkscape:zoom="1.979899"
     inkscape:cx="428.13978"
     inkscape:cy="982.0891"
     inkscape:document-units="mm"
     inkscape:current-layer="layer1"
     showgrid="false"
     inkscape:window-width="1920"
     inkscape:window-height="1026"
     inkscape:window-x="0"
     inkscape:window-y="25"
     inkscape:window-maximized="1" />
  <metadata
     id="metadata5">
    <rdf:RDF>
      <cc:Work
         rdf:about="">
        <dc:format>image/svg+xml</dc:format>
        <dc:type
           rdf:resource="http://purl.org/dc/dcmitype/StillImage" />
        <dc:title></dc:title>
      </cc:Work>
    </rdf:RDF>
  </metadata>
  <g
     inkscape:label="Layer 1"
     inkscape:groupmode="layer"
     id="layer1">
    <rect
       style="opacity:1;fill:none;fill-opacity:1;stroke:#000000;stroke-width:0.11138066;stroke-miterlimit:4;stroke-dasharray:none;stroke-dashoffset:0;stroke-opacity:0.98122068;paint-order:markers fill stroke"
       id="rect815"
       width="99.463142"
       height="44.294842"
       x="178.67691"
       y="115.68324"
       transform="matrix(1,0,-0.88339196,0.46863486,0,0)" />
    <rect
       style="opacity:1;fill:none;fill-opacity:1;stroke:#000000;stroke-width:0.08655977;stroke-miterlimit:4;stroke-dasharray:none;stroke-dashoffset:0;stroke-opacity:0.98122068;paint-order:markers fill stroke"
       id="rect819"
       width="99.523087"
       height="45.99699"
       x="76.428688"
       y="8.2215109" />
    <path
       style="fill:none;fill-rule:evenodd;stroke:#000000;stroke-width:0.26458332px;stroke-linecap:butt;stroke-linejoin:miter;stroke-opacity:1"
       d="m 68.254056,74.975754 c -2.267858,-3.96875 -2.864175,-10.809089 25.862015,-8.163256 28.726189,2.645833 48.947919,-2.645833 41.388389,-5.291667 -7.55952,-2.645833 -7.18154,-7.370535 -7.18154,-7.370535 l 0,-27.480571"
       id="path827"
       inkscape:connector-curvature="0"
       sodipodi:nodetypes="csscc" />
    <path
       style="fill:none;fill-rule:evenodd;stroke:#0500ff;stroke-width:0.26458332px;stroke-linecap:butt;stroke-linejoin:miter;stroke-opacity:1"
       d="m 65.556924,75.001056 c -5.544672,-8.09996 7.957564,-11.750475 27.425219,-9.889449 17.675237,2.144863 46.207587,0.566963 39.309517,-2.929317 m 0,0 c -6.89806,-3.496279 -6.04761,-8.102864 -6.04761,-8.102864 0,0 0.92259,-16.525903 -9.18973,-27.612662"
       id="path829"
       inkscape:connector-curvature="0"
       sodipodi:nodetypes="cccccc" />
    <path
       style="fill:none;fill-rule:evenodd;stroke:#0500ff;stroke-width:0.26458332px;stroke-linecap:butt;stroke-linejoin:miter;stroke-opacity:1"
       d="m 58.205957,74.985538 c 0,0 -6.234232,-7.795062 3.971126,-11.385836 10.205357,-3.590774 23.245534,-3.590773 23.245534,-3.590773 27.521543,-0.588711 35.249013,4.101183 35.240373,-5.91769 -0.004,-7.86783 -5.51502,-19.409031 -17.031,-27.64564"
       id="path831"
       inkscape:connector-curvature="0"
       sodipodi:nodetypes="csccc" />
    <path
       style="fill:none;fill-rule:evenodd;stroke:#ff0000;stroke-width:0.26458332px;stroke-linecap:butt;stroke-linejoin:miter;stroke-opacity:1"
       d="m 139.57354,26.549381 c -10.07774,11.051738 -9.15713,27.484577 -9.15713,27.484577 0,0 -0.41549,3.304541 3.72719,5.275653 4.14267,1.971113 4.88868,2.892667 4.6965,3.595343 -0.19218,0.702677 -3.35452,7.586359 -38.30884,5.971414 -9.88463,-0.456686 -36.316823,-4.324314 -29.607745,6.070031"
       id="path829-3"
       inkscape:connector-curvature="0"
       sodipodi:nodetypes="ccczsc" />
    <path
       style="fill:none;fill-rule:evenodd;stroke:#ff0000;stroke-width:0.26499999;stroke-linecap:butt;stroke-linejoin:miter;stroke-miterlimit:4;stroke-dasharray:none;stroke-opacity:1"
       d="m 153.07326,26.515749 c -11.47554,8.22402 -16.96141,19.730835 -17.0699,27.518209 -0.0473,3.392512 5.44936,2.859839 9.08611,9.041279 2.81327,4.781755 -15.7124,13.009177 -49.933964,9.406906 -18.851562,-1.984376 -18.770906,0.210241 -17.92046,2.478095"
       id="path831-6"
       inkscape:connector-curvature="0"
       sodipodi:nodetypes="csssc" />
    <path
       style="opacity:1;fill:#ffaaaa;fill-opacity:1;stroke:#ffaaaa;stroke-width:0.35770527;stroke-miterlimit:4;stroke-dasharray:none;stroke-dashoffset:0;stroke-opacity:1;paint-order:markers fill stroke"
       d="m 493.69059,196.09256 c 0.31878,-13.14521 1.91855,-25.08414 5.06074,-37.76786 5.52565,-22.30475 14.75596,-40.77401 28.08446,-56.19521 l 1.28641,-1.48839 24.22123,0.0918 24.22122,0.0918 -2.78383,2.09522 c -11.88919,8.94829 -24.53818,21.65741 -33.84838,34.00929 -11.7977,15.65205 -20.7388,34.1091 -24.37307,50.31313 -1.08687,4.84603 -1.95864,10.72494 -1.96773,13.26986 -0.004,1.00669 -0.10699,2.33259 -0.22976,2.94643 l -0.22321,1.11607 h -9.82689 -9.8269 z"
       id="path1469"
       inkscape:connector-curvature="0"
       transform="scale(0.26458333)" />
    <path
       style="opacity:1;fill:#ffaaaa;fill-opacity:1;stroke:#ffaaaa;stroke-width:0.35770527;stroke-miterlimit:4;stroke-dasharray:none;stroke-dashoffset:0;stroke-opacity:1;paint-order:markers fill stroke"
       d="m 267.55689,281.09394 c -0.6483,-1.12871 -1.58424,-3.25817 -2.07988,-4.73215 -2.13738,-6.35628 0.16528,-10.96807 7.14654,-14.3131 8.13578,-3.89822 19.39639,-5.18086 42.74726,-4.86912 14.65089,0.19559 19.99064,0.48786 46.68162,2.55513 34.31371,2.65767 72.68371,2.78968 99.38981,0.34196 26.7859,-2.45504 46.2209,-7.43179 56.91818,-14.57512 3.08699,-2.06141 4.58268,-3.46532 6.08203,-5.70882 2.9234,-4.37435 -0.52092,-7.92392 -14.42759,-14.86848 -6.38596,-3.18896 -8.53288,-4.62921 -11.26234,-7.55532 -2.97104,-3.18509 -5.14924,-7.86694 -5.16319,-11.09779 l -0.004,-0.98215 h 10 c 9.01523,0 10,0.0575 10,0.58357 0,1.50864 1.0057,3.60621 2.52637,5.26921 1.89784,2.07546 3.58733,3.27294 10.15221,7.19568 6.02343,3.59921 9.35079,6.04502 12.79387,9.40427 3.3794,3.29712 5.74664,6.2034 7.90727,9.70783 1.4165,2.2975 1.62028,2.87955 1.62028,4.6279 0,11.85845 -28.70912,24.65867 -68.39285,30.49356 -19.23781,2.82863 -35.93161,3.91789 -59.82143,3.90332 -22.09043,-0.0135 -35.04802,-0.69011 -60.35714,-3.15178 -25.27063,-2.45793 -38.70216,-3.26075 -48.39286,-2.89251 -12.50172,0.47505 -18.83663,2.21884 -20.71209,5.70135 -0.48233,0.89564 -0.58929,1.70613 -0.45751,3.46683 0.0946,1.26385 0.29311,2.57917 0.44114,2.92292 0.25309,0.58768 -0.40034,0.625 -10.94379,0.625 h -11.21295 z"
       id="path1471"
       inkscape:connector-curvature="0"
       transform="scale(0.26458333)" />
    <path
       style="opacity:1;fill:#aaccff;fill-opacity:1;stroke:#aaccff;stroke-width:0.35770527;stroke-miterlimit:4;stroke-dasharray:none;stroke-dashoffset:0;stroke-opacity:1;paint-order:markers fill stroke"
       d="m 456.62598,201.09256 c -1.61416,-23.41399 -12.61585,-48.14187 -31.76488,-71.39608 -3.77093,-4.57935 -16.17284,-17.07194 -20.74029,-20.89196 -1.76786,-1.47855 -4.79146,-3.91906 -6.71912,-5.42334 l -3.50484,-2.73505 h 24.12624 24.12624 l 2.88753,3.48214 c 19.17777,23.1269 30.4321,56.13106 31.29867,91.78571 l 0.2105,8.66072 h -9.84 -9.83999 z"
       id="path1475"
       inkscape:connector-curvature="0"
       transform="scale(0.26458333)" />
    <path
       style="opacity:1;fill:#aaccff;fill-opacity:1;stroke:#aaccff;stroke-width:0.35770527;stroke-miterlimit:4;stroke-dasharray:none;stroke-dashoffset:0;stroke-opacity:1;paint-order:markers fill stroke"
       d="m 219.42973,281.4497 c -6.15776,-9.42629 -7.47303,-19.01793 -3.60546,-26.29294 1.40459,-2.64207 4.65547,-6.18848 7.56536,-8.2531 11.21061,-7.95416 42.1837,-15.43726 75.37404,-18.21036 11.90097,-0.99434 20.89603,-1.26146 42.47888,-1.26146 21.93621,0 30.03184,0.20323 57.34254,1.43947 17.11313,0.77465 31.36897,0.90376 36.71051,0.33248 14.04357,-1.50196 19.84928,-6.79636 21.12914,-19.2683 0.20605,-2.00792 0.37464,-3.8748 0.37464,-4.14863 0,-0.4136 1.65346,-0.49788 9.76849,-0.49788 h 9.7685 l 0.2173,2.76786 c 0.78979,10.05966 8.69525,19.77937 21.85285,26.86791 3.20736,1.72794 4.82143,3.05722 4.82143,3.97073 0,2.18291 -6.28143,4.48414 -16.96428,6.21491 -16.55849,2.68271 -36.99104,3.87722 -66.07143,3.8626 -24.32434,-0.0122 -42.2724,-0.80107 -60.17857,-2.64491 -20.29328,-2.08964 -28.26723,-2.55764 -43.75,-2.5677 -12.38666,-0.008 -19.77276,0.34989 -28.39286,1.37599 -24.02383,2.85969 -39.40086,9.47814 -43.94486,18.91437 -1.04147,2.16275 -1.21719,2.93238 -1.34329,5.88337 -0.12654,2.96131 -0.0236,3.75992 0.80605,6.25 0.52312,1.57018 1.49767,3.77898 2.16565,4.90845 l 1.21452,2.05357 h -13.11547 -13.11548 z"
       id="path1477"
       inkscape:connector-curvature="0"
       transform="scale(0.26458333)" />
    <text
       xml:space="preserve"
       style="font-style:normal;font-weight:normal;font-size:3.52777767px;line-height:125%;font-family:sans-serif;letter-spacing:0px;word-spacing:0px;fill:#000000;fill-opacity:1;stroke:none;stroke-width:0.26458332px;stroke-linecap:butt;stroke-linejoin:miter;stroke-opacity:1"
       x="129.47574"
       y="34.306545"
       id="text1481"><tspan
         sodipodi:role="line"
         id="tspan1479"
         x="129.47574"
         y="34.306545"
         style="stroke-width:0.26458332px">$\gamma$</tspan></text>
    <path
       style="fill:none;fill-rule:evenodd;stroke:#000000;stroke-width:0.26458332px;stroke-linecap:butt;stroke-linejoin:miter;stroke-opacity:1;marker-start:url(#Arrow1Sstart);marker-end:url(#Arrow1Send)"
       d="M 158.31529,27.124998 V 53.394345"
       id="path1483"
       inkscape:connector-curvature="0" />
    <text
       xml:space="preserve"
       style="font-style:normal;font-weight:normal;font-size:3.52777767px;line-height:125%;font-family:sans-serif;letter-spacing:0px;word-spacing:0px;fill:#000000;fill-opacity:1;stroke:none;stroke-width:0.26458332px;stroke-linecap:butt;stroke-linejoin:miter;stroke-opacity:1"
       x="159.63832"
       y="38.936752"
       id="text1833"><tspan
         sodipodi:role="line"
         id="tspan1831"
         x="159.63832"
         y="38.936752"
         style="stroke-width:0.26458332px">$k$</tspan></text>
    <text
       xml:space="preserve"
       style="font-style:normal;font-weight:normal;font-size:3.52777767px;line-height:125%;font-family:sans-serif;letter-spacing:0px;word-spacing:0px;fill:#000000;fill-opacity:1;stroke:none;stroke-width:0.26458332px;stroke-linecap:butt;stroke-linejoin:miter;stroke-opacity:1"
       x="153.00105"
       y="69.949165"
       id="text1837"><tspan
         sodipodi:role="line"
         id="tspan1835"
         x="153.00105"
         y="69.949165"
         style="stroke-width:0.26458332px">$\Cay(G,S)$</tspan></text>
    <text
       xml:space="preserve"
       style="font-style:normal;font-weight:normal;font-size:3.52777767px;line-height:125%;font-family:sans-serif;letter-spacing:0px;word-spacing:0px;fill:#000000;fill-opacity:1;stroke:none;stroke-width:0.26458332px;stroke-linecap:butt;stroke-linejoin:miter;stroke-opacity:1"
       x="77.639404"
       y="12.542911"
       id="text1841"><tspan
         sodipodi:role="line"
         id="tspan1839"
         x="77.639404"
         y="12.542911"
         style="stroke-width:0.26458332px">$\Hor(\Cay(H, H\intersection S))$</tspan></text>
    <path
       style="fill:none;fill-rule:evenodd;stroke:#000000;stroke-width:0.23706235;stroke-linecap:butt;stroke-linejoin:miter;stroke-miterlimit:4;stroke-dasharray:0.71118704, 0.71118704;stroke-dashoffset:0;stroke-opacity:1"
       d="M 175.59403,26.693014 H 147.38 135.71125 76.540178"
       id="path861"
       inkscape:connector-curvature="0"
       sodipodi:nodetypes="cccc" />
  </g>
  <g
     inkscape:groupmode="layer"
     id="layer2"
     inkscape:label="top" />
</svg>
