<?xml version="1.0" encoding="UTF-8" standalone="no"?>
<!-- Created with Inkscape (http://www.inkscape.org/) -->

<svg
   xmlns:dc="http://purl.org/dc/elements/1.1/"
   xmlns:cc="http://creativecommons.org/ns#"
   xmlns:rdf="http://www.w3.org/1999/02/22-rdf-syntax-ns#"
   xmlns:svg="http://www.w3.org/2000/svg"
   xmlns="http://www.w3.org/2000/svg"
   xmlns:sodipodi="http://sodipodi.sourceforge.net/DTD/sodipodi-0.dtd"
   xmlns:inkscape="http://www.inkscape.org/namespaces/inkscape"
   width="210mm"
   height="297mm"
   viewBox="0 0 210 297"
   version="1.1"
   id="svg1964"
   inkscape:version="0.92.3 (unknown)"
   sodipodi:docname="pumping_lemma.svg">
  <defs
     id="defs1958">
    <marker
       inkscape:stockid="Arrow1Lend"
       orient="auto"
       refY="0.0"
       refX="0.0"
       id="Arrow1Lend"
       style="overflow:visible;"
       inkscape:isstock="true">
      <path
         id="path1488"
         d="M 0.0,0.0 L 5.0,-5.0 L -12.5,0.0 L 5.0,5.0 L 0.0,0.0 z "
         style="fill-rule:evenodd;stroke:#000000;stroke-width:1pt;stroke-opacity:1;fill:#000000;fill-opacity:1"
         transform="scale(0.8) rotate(180) translate(12.5,0)" />
    </marker>
    <marker
       inkscape:stockid="Arrow1Lstart"
       orient="auto"
       refY="0.0"
       refX="0.0"
       id="Arrow1Lstart"
       style="overflow:visible"
       inkscape:isstock="true">
      <path
         id="path1485"
         d="M 0.0,0.0 L 5.0,-5.0 L -12.5,0.0 L 5.0,5.0 L 0.0,0.0 z "
         style="fill-rule:evenodd;stroke:#000000;stroke-width:1pt;stroke-opacity:1;fill:#000000;fill-opacity:1"
         transform="scale(0.8) translate(12.5,0)" />
    </marker>
  </defs>
  <sodipodi:namedview
     id="base"
     pagecolor="#ffffff"
     bordercolor="#666666"
     borderopacity="1.0"
     inkscape:pageopacity="0.0"
     inkscape:pageshadow="2"
     inkscape:zoom="1.4"
     inkscape:cx="408.25895"
     inkscape:cy="975.87277"
     inkscape:document-units="mm"
     inkscape:current-layer="layer1"
     showgrid="false"
     inkscape:window-width="1920"
     inkscape:window-height="1026"
     inkscape:window-x="0"
     inkscape:window-y="25"
     inkscape:window-maximized="1" />
  <metadata
     id="metadata1961">
    <rdf:RDF>
      <cc:Work
         rdf:about="">
        <dc:format>image/svg+xml</dc:format>
        <dc:type
           rdf:resource="http://purl.org/dc/dcmitype/StillImage" />
        <dc:title></dc:title>
      </cc:Work>
    </rdf:RDF>
  </metadata>
  <g
     inkscape:label="Layer 1"
     inkscape:groupmode="layer"
     id="layer1">
    <path
       style="fill:none;fill-rule:evenodd;stroke:#fa0000;stroke-width:0.22843915px;stroke-linecap:butt;stroke-linejoin:miter;stroke-opacity:1"
       d="m 13.67552,66.639224 c 0,0 4.319518,-15.644141 10.64008,-29.041986 5.355998,-11.355523 12.000618,-20.74908 18.435478,-17.109693 14.076264,7.961165 32.136568,33.777104 38.882791,19.383707 6.159423,-13.141431 22.428211,-12.963829 29.421691,-6.461237 6.5463,6.086796 14.08348,24.346246 21.21119,11.113557 0.83587,-1.551804 0.62805,-3.039748 1.28549,-5.18986 1.64972,-5.395299 5.18367,-16.215706 9.67033,-25.715536 l 1.22799,-3.366557"
       id="path2680"
       inkscape:connector-curvature="0" />
    <path
       style="fill:none;fill-rule:evenodd;stroke:#fa0000;stroke-width:0.22843915px;stroke-linecap:butt;stroke-linejoin:miter;stroke-opacity:1"
       d="M 17.829172,69.869843 C 23.07049,63.789914 25.620054,47.309997 30.639295,37.153178 33.910401,30.535705 38.205007,26.63275 44.943284,30.064019 55.834373,35.609985 76.310565,63.78479 82.903039,51.293791 87.28745,42.98649 92.033833,36.444694 99.63303,35.60222 c 10.42169,-1.155386 22.32587,32.883073 37.4117,11.624456 0.65812,-0.807267 0.75692,-2.673846 1.2716,-3.563197 4.20478,-7.265782 6.73146,-21.356931 11.19424,-30.392481 l 1.18128,-2.937793"
       id="path2678"
       inkscape:connector-curvature="0" />
    <path
       style="fill:none;fill-rule:evenodd;stroke:#000000;stroke-width:0.4;stroke-linecap:butt;stroke-linejoin:miter;stroke-opacity:1;stroke-miterlimit:4;stroke-dasharray:none"
       d="m 20.95484,70.237483 c 6.43715,-11.453771 8.967205,-24.783003 12.862485,-32.330029 3.463911,-6.709662 7.954803,-8.799806 17.136349,-0.855025 19.540836,16.908664 26.448094,28.70453 36.06075,11.421958 19.088596,-34.319348 28.716046,30.569615 52.625016,-1.24221 0.55741,-0.741646 0.79817,-1.988916 1.09567,-2.558545 5.77214,-11.05241 8.26878,-23.485784 11.95859,-30.648358 l 1.50632,-3.692069"
       id="path2676"
       inkscape:connector-curvature="0" />
    <path
       style="fill:none;fill-rule:evenodd;stroke:#0000f4;stroke-width:0.22843915px;stroke-linecap:butt;stroke-linejoin:miter;stroke-opacity:1"
       d="m 24.22941,70.21219 c 5.335911,-6.189656 7.315137,-22.797522 11.436612,-31.436802 2.568259,-5.377142 5.93158,-7.640941 11.408471,-2.369305 5.143755,4.950984 28.933843,31.724397 36.921341,20.07598 5.538211,-8.076541 10.070475,-14.709021 15.172372,-15.114675 9.130304,-0.725954 22.268194,31.960042 40.566044,9.238647 2.77287,-3.309403 3.68354,-4.684129 3.89647,-4.979841 4.85297,-6.739695 6.97809,-22.471485 10.91168,-30.732987 l 1.90122,-4.356039"
       id="path2674"
       inkscape:connector-curvature="0" />
    <path
       style="fill:none;fill-rule:evenodd;stroke:#0000f4;stroke-width:0.22843915px;stroke-linecap:butt;stroke-linejoin:miter;stroke-opacity:1"
       d="m 31.11769,71.848227 c 0,0 4.448564,-21.980561 10.676364,-27.374016 2.149704,-1.865947 4.803653,-1.61733 8.072756,2.394419 10.215684,12.536392 32.392157,30.121191 38.536657,15.460815 5.121003,-12.218397 11.640253,-20.751925 28.671723,-2.249896 6.05396,6.576679 18.32235,7.8443 28.53776,-5.789497 3.98349,-5.316491 4.54672,-7.199669 4.88635,-8.666887 1.34848,-5.825447 5.19936,-20.735017 10.16603,-25.031135 l 1.20371,-1.325223"
       id="path2629-8"
       inkscape:connector-curvature="0" />
    <path
       style="opacity:1;fill:none;fill-opacity:1;stroke:none;stroke-width:0.2139979;stroke-miterlimit:4;stroke-dasharray:none;stroke-dashoffset:0;stroke-opacity:1;paint-order:markers fill stroke"
       d="m 77.373068,54.219847 c -1.000406,-0.142082 -2.30041,-0.588841 -3.579045,-1.229973 -3.521979,-1.765986 -6.896444,-4.41339 -14.247518,-11.17775 -7.770764,-7.150557 -9.991748,-9.038333 -12.761456,-10.846901 -4.60008,-3.003765 -8.359645,-3.110334 -11.696908,-0.331557 -1.157716,0.963972 -2.805765,3.088726 -3.812236,4.914935 l -0.698167,1.2668 -2.13857,0.0084 c -1.176213,0.0046 -2.467001,0.08615 -2.868414,0.181191 -0.401416,0.09504 -0.752552,0.150094 -0.780305,0.12234 -0.02776,-0.02775 0.493472,-1.106666 1.15828,-2.397592 5.851117,-11.361689 11.040556,-16.151267 15.718312,-14.507168 1.130883,0.397474 4.880292,2.889346 7.395886,4.915337 1.032057,0.831189 3.301099,2.764564 5.042315,4.29639 7.924552,6.97157 9.346202,8.197605 11.030014,9.512311 4.782188,3.733898 8.026495,5.331133 10.85086,5.342087 1.186188,0.0046 1.517989,-0.05898 2.292204,-0.439209 1.319796,-0.648175 2.472324,-1.893 3.359572,-3.628623 2.084291,-4.077253 4.312434,-6.543366 7.646645,-8.463315 5.280378,-3.040616 12.383633,-3.283925 17.948793,-0.614803 3.14707,1.509375 4.35685,2.69932 8.89156,8.745716 3.30008,4.400186 5.05049,6.491729 6.25976,7.479685 1.20269,0.982583 2.51147,1.706833 3.4734,1.922103 2.29541,0.513691 4.52032,-0.999378 6.34148,-4.312566 0.45404,-0.826024 0.69944,-1.586197 0.99826,-3.09225 0.21791,-1.098336 0.5159,-2.42559 0.66218,-2.949454 l 0.26596,-0.952481 0.41955,0.544553 c 0.83151,1.079249 2.07909,2.31066 3.14303,3.102302 l 1.08443,0.806886 -0.37831,0.683661 c -0.20808,0.376013 -0.56254,1.323949 -0.78769,2.106527 -0.44582,1.549553 -0.81723,2.166325 -2.46019,4.085465 -1.94047,2.266669 -4.14856,3.81076 -6.36514,4.451064 -0.72896,0.210571 -1.33584,0.259306 -2.44757,0.196542 -1.61895,-0.0914 -2.5191,-0.346391 -4.25217,-1.20453 -2.28815,-1.133001 -3.87071,-2.502386 -9.87183,-8.54208 -6.85687,-6.900942 -8.04215,-7.867614 -10.516,-8.576461 -2.764763,-0.792204 -7.046684,0.701921 -10.508302,3.666746 -2.22354,1.904426 -5.325573,6.145854 -7.693765,10.519726 -1.326953,2.450784 -2.226324,3.540885 -3.309174,4.010953 -0.741475,0.321878 -2.020348,0.497116 -2.809731,0.385005 z"
       id="path2682"
       inkscape:connector-curvature="0" />
    <path
       style="opacity:1;fill:none;fill-opacity:1;stroke:none;stroke-width:0.2139979;stroke-miterlimit:4;stroke-dasharray:none;stroke-dashoffset:0;stroke-opacity:1;paint-order:markers fill stroke"
       d="m 76.475627,58.970817 c -3.080043,-0.66047 -6.618093,-2.533406 -11.04248,-5.845552 -4.296047,-3.216074 -8.6684,-7.203694 -15.885026,-14.487267 -4.32081,-4.360894 -5.835661,-5.360274 -8.119132,-5.35637 -1.893471,0.0032 -3.691013,1.37397 -5.120192,3.904454 l -0.716034,1.267799 -0.752225,-0.343326 -0.752225,-0.343323 0.674926,-1.13206 c 0.951113,-1.595314 2.498524,-3.194526 3.722067,-3.846667 2.475597,-1.31948 5.584078,-0.595086 9.541595,2.223558 1.761711,1.254737 5.379418,4.405331 11.238051,9.787015 8.619393,7.917685 11.123671,9.918348 14.178442,11.327128 1.620563,0.747359 2.537897,0.976767 3.905807,0.976767 3.611168,0 6.315575,-2.450524 10.354363,-9.382323 2.873272,-4.931414 5.63201,-7.834958 8.515735,-8.962712 1.087637,-0.425349 2.819236,-0.511126 4.033121,-0.199786 2.80078,0.718354 4.6933,2.157114 10.97859,8.346349 5.45373,5.370372 7.42004,6.993702 9.99895,8.254846 2.1131,1.033358 3.614,1.363459 5.65113,1.242887 3.40386,-0.201463 6.32241,-1.8177 9.81782,-5.436914 2.08821,-2.162179 3.29674,-3.770251 3.73642,-4.971656 0.21072,-0.575804 0.5175,-1.318466 0.68172,-1.650361 l 0.29858,-0.603443 0.92398,0.317894 c 0.50819,0.174843 1.055,0.317896 1.21514,0.317896 0.16015,0 0.33792,0.07564 0.39505,0.168083 0.21947,0.3551 -4.10929,5.856358 -6.66045,8.464519 -2.64388,2.702962 -5.46896,4.490709 -8.11997,5.138409 -1.48778,0.3635 -3.8763,0.339306 -5.41753,-0.05488 -3.95623,-1.011835 -6.96376,-3.076029 -13.23228,-9.081882 -4.54676,-4.356239 -5.60168,-5.284504 -7.20234,-6.337629 -1.76008,-1.158011 -2.52801,-1.440186 -3.9161,-1.43897 -3.869751,0.0034 -7.932283,3.852105 -14.763164,13.986153 -1.637859,2.429866 -2.757796,3.361254 -4.548521,3.782742 -1.151112,0.270941 -2.248396,0.261412 -3.613818,-0.03138 z"
       id="path2684"
       inkscape:connector-curvature="0" />
    <path
       style="opacity:1;fill:none;fill-opacity:1;stroke:none;stroke-width:0.9367829;stroke-miterlimit:4;stroke-dasharray:none;stroke-dashoffset:0;stroke-opacity:1;paint-order:markers fill stroke"
       d=""
       id="path2686"
       inkscape:connector-curvature="0"
       transform="scale(0.26458333)" />
    <path
       style="opacity:1;fill:none;fill-opacity:1;stroke:none;stroke-width:0.2139979;stroke-miterlimit:4;stroke-dasharray:none;stroke-dashoffset:0;stroke-opacity:1;paint-order:markers fill stroke"
       d="m 77.373068,54.219847 c -1.000406,-0.142082 -2.30041,-0.588841 -3.579045,-1.229973 -3.521979,-1.765986 -6.896444,-4.41339 -14.247518,-11.17775 -7.770764,-7.150557 -9.991748,-9.038333 -12.761456,-10.846901 -4.60008,-3.003765 -8.359645,-3.110334 -11.696908,-0.331557 -1.157716,0.963972 -2.805765,3.088726 -3.812236,4.914935 l -0.698167,1.2668 -2.13857,0.0084 c -1.176213,0.0046 -2.467001,0.08615 -2.868414,0.181191 -0.401416,0.09504 -0.752552,0.150094 -0.780305,0.12234 -0.02776,-0.02775 0.493472,-1.106666 1.15828,-2.397592 5.851117,-11.361689 11.040556,-16.151267 15.718312,-14.507168 1.130883,0.397474 4.880292,2.889346 7.395886,4.915337 1.032057,0.831189 3.301099,2.764564 5.042315,4.29639 7.924552,6.97157 9.346202,8.197605 11.030014,9.512311 4.782188,3.733898 8.026495,5.331133 10.85086,5.342087 1.186188,0.0046 1.517989,-0.05898 2.292204,-0.439209 1.319796,-0.648175 2.472324,-1.893 3.359572,-3.628623 2.084291,-4.077253 4.312434,-6.543366 7.646645,-8.463315 5.280378,-3.040616 12.383633,-3.283925 17.948793,-0.614803 3.14707,1.509375 4.35685,2.69932 8.89156,8.745716 3.30008,4.400186 5.05049,6.491729 6.25976,7.479685 1.20269,0.982583 2.51147,1.706833 3.4734,1.922103 2.29541,0.513691 4.52032,-0.999378 6.34148,-4.312566 0.45404,-0.826024 0.69944,-1.586197 0.99826,-3.09225 0.21791,-1.098336 0.5159,-2.42559 0.66218,-2.949454 l 0.26596,-0.952481 0.41955,0.544553 c 0.83151,1.079249 2.07909,2.31066 3.14303,3.102302 l 1.08443,0.806886 -0.37831,0.683661 c -0.20808,0.376013 -0.56254,1.323949 -0.78769,2.106527 -0.44582,1.549553 -0.81723,2.166325 -2.46019,4.085465 -1.94047,2.266669 -4.14856,3.81076 -6.36514,4.451064 -0.72896,0.210571 -1.33584,0.259306 -2.44757,0.196542 -1.61895,-0.0914 -2.5191,-0.346391 -4.25217,-1.20453 -2.28815,-1.133001 -3.87071,-2.502386 -9.87183,-8.54208 -6.85687,-6.900942 -8.04215,-7.867614 -10.516,-8.576461 -2.764763,-0.792204 -7.046684,0.701921 -10.508302,3.666746 -2.22354,1.904426 -5.325573,6.145854 -7.693765,10.519726 -1.326953,2.450784 -2.226324,3.540885 -3.309174,4.010953 -0.741475,0.321878 -2.020348,0.497116 -2.809731,0.385005 z"
       id="path2688"
       inkscape:connector-curvature="0" />
    <path
       style="opacity:1;fill:none;fill-opacity:1;stroke:none;stroke-width:0.2139979;stroke-miterlimit:4;stroke-dasharray:none;stroke-dashoffset:0;stroke-opacity:1;paint-order:markers fill stroke"
       d="m 77.373068,54.219847 c -1.000406,-0.142082 -2.30041,-0.588841 -3.579045,-1.229973 -3.521979,-1.765986 -6.896444,-4.41339 -14.247518,-11.17775 -7.770764,-7.150557 -9.991748,-9.038333 -12.761456,-10.846901 -4.60008,-3.003765 -8.359645,-3.110334 -11.696908,-0.331557 -1.157716,0.963972 -2.805765,3.088726 -3.812236,4.914935 l -0.698167,1.2668 -2.13857,0.0084 c -1.176213,0.0046 -2.467001,0.08615 -2.868414,0.181191 -0.401416,0.09504 -0.752552,0.150094 -0.780305,0.12234 -0.02776,-0.02775 0.493472,-1.106666 1.15828,-2.397592 5.851117,-11.361689 11.040556,-16.151267 15.718312,-14.507168 1.130883,0.397474 4.880292,2.889346 7.395886,4.915337 1.032057,0.831189 3.301099,2.764564 5.042315,4.29639 7.924552,6.97157 9.346202,8.197605 11.030014,9.512311 4.782188,3.733898 8.026495,5.331133 10.85086,5.342087 1.186188,0.0046 1.517989,-0.05898 2.292204,-0.439209 1.319796,-0.648175 2.472324,-1.893 3.359572,-3.628623 2.084291,-4.077253 4.312434,-6.543366 7.646645,-8.463315 5.280378,-3.040616 12.383633,-3.283925 17.948793,-0.614803 3.14707,1.509375 4.35685,2.69932 8.89156,8.745716 3.30008,4.400186 5.05049,6.491729 6.25976,7.479685 1.20269,0.982583 2.51147,1.706833 3.4734,1.922103 2.29541,0.513691 4.52032,-0.999378 6.34148,-4.312566 0.45404,-0.826024 0.69944,-1.586197 0.99826,-3.09225 0.21791,-1.098336 0.5159,-2.42559 0.66218,-2.949454 l 0.26596,-0.952481 0.41955,0.544553 c 0.83151,1.079249 2.07909,2.31066 3.14303,3.102302 l 1.08443,0.806886 -0.37831,0.683661 c -0.20808,0.376013 -0.56254,1.323949 -0.78769,2.106527 -0.44582,1.549553 -0.81723,2.166325 -2.46019,4.085465 -1.94047,2.266669 -4.14856,3.81076 -6.36514,4.451064 -0.72896,0.210571 -1.33584,0.259306 -2.44757,0.196542 -1.61895,-0.0914 -2.5191,-0.346391 -4.25217,-1.20453 -2.28815,-1.133001 -3.87071,-2.502386 -9.87183,-8.54208 -6.85687,-6.900942 -8.04215,-7.867614 -10.516,-8.576461 -2.764763,-0.792204 -7.046684,0.701921 -10.508302,3.666746 -2.22354,1.904426 -5.325573,6.145854 -7.693765,10.519726 -1.326953,2.450784 -2.226324,3.540885 -3.309174,4.010953 -0.741475,0.321878 -2.020348,0.497116 -2.809731,0.385005 z"
       id="path2690"
       inkscape:connector-curvature="0" />
    <path
       style="opacity:1;fill:none;fill-opacity:1;stroke:none;stroke-width:0.2139979;stroke-miterlimit:4;stroke-dasharray:none;stroke-dashoffset:0;stroke-opacity:1;paint-order:markers fill stroke"
       d="M 78.433677,67.523248 C 71.053226,66.308763 59.551741,58.003419 50.558535,47.394309 47.990173,44.364465 46.643736,43.402472 44.784646,43.26902 43.823058,43.2 43.573482,43.24643 42.755606,43.646586 l -0.932589,0.456273 -0.255352,-0.388817 c -1.027515,-1.564575 -3.465354,-3.848039 -4.951293,-4.637758 -0.333912,-0.177461 -0.607109,-0.401116 -0.607109,-0.497015 0,-0.331566 1.494398,-2.609525 2.173685,-3.313416 1.982338,-2.054144 4.054923,-2.161759 6.766073,-0.351324 0.522009,0.348585 3.331651,3.006513 6.243645,5.906507 2.911994,2.899994 6.359225,6.220766 7.660513,7.379494 6.44375,5.737825 11.661232,9.229856 16.04126,10.736323 1.348447,0.463784 1.696972,0.516595 3.457653,0.523934 1.860557,0.0077 2.010859,-0.017 3.018661,-0.497243 0.583336,-0.277974 1.354318,-0.793506 1.713294,-1.145627 0.358974,-0.352121 1.747384,-2.21194 3.08535,-4.13293 7.486805,-10.749207 11.531005,-13.646138 15.868473,-11.366861 1.62676,0.854835 3.33051,2.2732 7.03716,5.858411 4.14192,4.00622 5.23999,4.983652 7.54062,6.712173 3.531,2.652928 6.73497,3.904619 9.95342,3.888494 3.41254,-0.01709 6.35177,-1.291474 9.68645,-4.199806 1.74411,-1.521122 5.89478,-6.413178 7.55352,-8.902722 l 0.71088,-1.066948 1.32012,0.153751 c 0.88335,0.10288 1.86663,0.09435 2.97192,-0.02578 0.90849,-0.09874 1.67092,-0.160403 1.69429,-0.137031 0.10579,0.105783 -0.52679,2.240574 -0.92989,3.138178 -0.93356,2.078787 -3.94246,6.42405 -6.25965,9.039781 -2.86756,3.237026 -6.67562,5.884931 -10.05973,6.994958 -3.40045,1.11539 -7.00087,1.133565 -10.11816,0.05108 -2.59292,-0.900398 -3.51876,-1.583033 -7.66536,-5.651813 -1.9295,-1.893281 -4.13231,-3.926671 -4.89513,-4.518643 -4.59654,-3.567046 -8.38379,-4.989166 -11.522635,-4.326773 -3.961091,0.835914 -6.927282,4.175847 -10.169931,11.451347 -1.341129,3.00908 -1.851992,3.853334 -2.957288,4.887209 -1.825967,1.707978 -4.453294,2.359745 -7.494799,1.85925 z"
       id="path2692"
       inkscape:connector-curvature="0" />
    <path
       style="opacity:1;fill:#ffaaaa;fill-opacity:1;stroke:none;stroke-width:0.2139979;stroke-miterlimit:4;stroke-dasharray:none;stroke-dashoffset:0;stroke-opacity:1;paint-order:markers fill stroke"
       d="m 77.373068,54.219847 c -1.000406,-0.142082 -2.30041,-0.588841 -3.579045,-1.229973 -3.521979,-1.765986 -6.896444,-4.41339 -14.247518,-11.17775 -7.770764,-7.150557 -9.991748,-9.038333 -12.761456,-10.846901 -4.60008,-3.003765 -8.359645,-3.110334 -11.696908,-0.331557 -1.157716,0.963972 -2.805765,3.088726 -3.812236,4.914935 l -0.698167,1.2668 -2.13857,0.0084 c -1.176213,0.0046 -2.467001,0.08615 -2.868414,0.181191 -0.401416,0.09504 -0.752552,0.150094 -0.780305,0.12234 -0.02776,-0.02775 0.493472,-1.106666 1.15828,-2.397592 5.851117,-11.361689 11.040556,-16.151267 15.718312,-14.507168 1.130883,0.397474 4.880292,2.889346 7.395886,4.915337 1.032057,0.831189 3.301099,2.764564 5.042315,4.29639 7.924552,6.97157 9.346202,8.197605 11.030014,9.512311 4.782188,3.733898 8.026495,5.331133 10.85086,5.342087 1.186188,0.0046 1.517989,-0.05898 2.292204,-0.439209 1.319796,-0.648175 2.472324,-1.893 3.359572,-3.628623 2.084291,-4.077253 4.312434,-6.543366 7.646645,-8.463315 5.280378,-3.040616 12.383633,-3.283925 17.948793,-0.614803 3.14707,1.509375 4.35685,2.69932 8.89156,8.745716 3.30008,4.400186 5.05049,6.491729 6.25976,7.479685 1.20269,0.982583 2.51147,1.706833 3.4734,1.922103 2.29541,0.513691 4.52032,-0.999378 6.34148,-4.312566 0.45404,-0.826024 0.69944,-1.586197 0.99826,-3.09225 0.21791,-1.098336 0.5159,-2.42559 0.66218,-2.949454 l 0.26596,-0.952481 0.41955,0.544553 c 0.83151,1.079249 2.07909,2.31066 3.14303,3.102302 l 1.08443,0.806886 -0.37831,0.683661 c -0.20808,0.376013 -0.56254,1.323949 -0.78769,2.106527 -0.44582,1.549553 -0.81723,2.166325 -2.46019,4.085465 -1.94047,2.266669 -4.14856,3.81076 -6.36514,4.451064 -0.72896,0.210571 -1.33584,0.259306 -2.44757,0.196542 -1.61895,-0.0914 -2.5191,-0.346391 -4.25217,-1.20453 -2.28815,-1.133001 -3.87071,-2.502386 -9.87183,-8.54208 -6.85687,-6.900942 -8.04215,-7.867614 -10.516,-8.576461 -2.764763,-0.792204 -7.046684,0.701921 -10.508302,3.666746 -2.22354,1.904426 -5.325573,6.145854 -7.693765,10.519726 -1.326953,2.450784 -2.226324,3.540885 -3.309174,4.010953 -0.741475,0.321878 -2.020348,0.497116 -2.809731,0.385005 z"
       id="path2694"
       inkscape:connector-curvature="0" />
    <path
       style="opacity:1;fill:#ffaaaa;fill-opacity:1;stroke:none;stroke-width:0.2139979;stroke-miterlimit:4;stroke-dasharray:none;stroke-dashoffset:0;stroke-opacity:1;paint-order:markers fill stroke"
       d="m 19.098239,65.20354 c -1.006625,-0.74815 -2.90317,-2.65209 -3.392048,-3.405276 -0.286324,-0.441121 -0.277731,-0.476769 1.101265,-4.568783 2.200665,-6.530219 4.079955,-11.441623 6.337537,-16.562742 1.279166,-2.901673 1.325948,-2.979022 1.907128,-3.153157 0.681153,-0.204088 5.246163,-0.420938 5.246163,-0.249207 0,0.06228 -0.327566,0.86552 -0.727924,1.784971 -1.22135,2.804929 -2.285874,5.861498 -4.486301,12.881516 -1.158898,3.697228 -2.409866,7.566645 -2.779929,8.598699 -0.665833,1.856922 -2.10805,5.384637 -2.201371,5.384637 -0.02659,0 -0.47862,-0.319796 -1.00452,-0.710658 z"
       id="path3300"
       inkscape:connector-curvature="0" />
    <path
       style="opacity:1;fill:#ffaaaa;fill-opacity:1;stroke:none;stroke-width:0.2139979;stroke-miterlimit:4;stroke-dasharray:none;stroke-dashoffset:0;stroke-opacity:1;paint-order:markers fill stroke"
       d="m 137.52975,41.014072 c -1.37485,-1.100015 -3.12848,-3.081423 -3.12848,-3.534836 0,-0.402482 1.38663,-4.611408 2.88861,-8.767986 1.7089,-4.729224 3.5049,-9.260775 4.94723,-12.482569 l 1.09573,-2.447562 0.87806,-0.18823 c 0.48293,-0.103526 1.80876,-0.19531 2.94629,-0.203963 l 2.06822,-0.01573 -0.66044,1.50933 c -1.18672,2.712086 -2.40311,6.147941 -4.14478,11.707507 -2.37805,7.590926 -3.09121,9.735867 -3.98755,11.993056 -0.79319,1.997458 -1.44654,3.508174 -1.51722,3.508174 -0.0217,0 -0.6452,-0.484734 -1.38567,-1.077186 z"
       id="path3302"
       inkscape:connector-curvature="0" />
    <path
       style="opacity:1;fill:#aaccff;fill-opacity:1;stroke:none;stroke-width:0.2139979;stroke-miterlimit:4;stroke-dasharray:none;stroke-dashoffset:0;stroke-opacity:1;paint-order:markers fill stroke"
       d="M 78.433677,67.523248 C 71.053226,66.308763 59.551741,58.003419 50.558535,47.394309 47.990173,44.364465 46.643736,43.402472 44.784646,43.26902 43.823058,43.2 43.573482,43.24643 42.755606,43.646586 l -0.932589,0.456273 -0.255352,-0.388817 c -1.027515,-1.564575 -3.465354,-3.848039 -4.951293,-4.637758 -0.333912,-0.177461 -0.607109,-0.401116 -0.607109,-0.497015 0,-0.331566 1.494398,-2.609525 2.173685,-3.313416 1.982338,-2.054144 4.054923,-2.161759 6.766073,-0.351324 0.522009,0.348585 3.331651,3.006513 6.243645,5.906507 2.911994,2.899994 6.359225,6.220766 7.660513,7.379494 6.44375,5.737825 11.661232,9.229856 16.04126,10.736323 1.348447,0.463784 1.696972,0.516595 3.457653,0.523934 1.860557,0.0077 2.010859,-0.017 3.018661,-0.497243 0.583336,-0.277974 1.354318,-0.793506 1.713294,-1.145627 0.358974,-0.352121 1.747384,-2.21194 3.08535,-4.13293 7.486805,-10.749207 11.531005,-13.646138 15.868473,-11.366861 1.62676,0.854835 3.33051,2.2732 7.03716,5.858411 4.14192,4.00622 5.23999,4.983652 7.54062,6.712173 3.531,2.652928 6.73497,3.904619 9.95342,3.888494 3.41254,-0.01709 6.35177,-1.291474 9.68645,-4.199806 1.74411,-1.521122 5.89478,-6.413178 7.55352,-8.902722 l 0.71088,-1.066948 1.32012,0.153751 c 0.88335,0.10288 1.86663,0.09435 2.97192,-0.02578 0.90849,-0.09874 1.67092,-0.160403 1.69429,-0.137031 0.10579,0.105783 -0.52679,2.240574 -0.92989,3.138178 -0.93356,2.078787 -3.94246,6.42405 -6.25965,9.039781 -2.86756,3.237026 -6.67562,5.884931 -10.05973,6.994958 -3.40045,1.11539 -7.00087,1.133565 -10.11816,0.05108 -2.59292,-0.900398 -3.51876,-1.583033 -7.66536,-5.651813 -1.9295,-1.893281 -4.13231,-3.926671 -4.89513,-4.518643 -4.59654,-3.567046 -8.38379,-4.989166 -11.522635,-4.326773 -3.961091,0.835914 -6.927282,4.175847 -10.169931,11.451347 -1.341129,3.00908 -1.851992,3.853334 -2.957288,4.887209 -1.825967,1.707978 -4.453294,2.359745 -7.494799,1.85925 z"
       id="path3304"
       inkscape:connector-curvature="0" />
    <path
       style="opacity:1;fill:#aaccff;fill-opacity:1;stroke:none;stroke-width:0.2139979;stroke-miterlimit:4;stroke-dasharray:none;stroke-dashoffset:0;stroke-opacity:1;paint-order:markers fill stroke"
       d="m 26.751917,68.251135 -0.854048,-0.06942 0.712159,-1.419308 c 1.481983,-2.953538 2.733668,-6.774793 5.468526,-16.694789 1.135397,-4.118369 2.566105,-8.531231 3.317621,-10.232852 l 0.384029,-0.869537 1.249713,0.835858 c 1.415295,0.946607 2.847597,2.298073 3.868298,3.649981 l 0.693971,0.919159 -0.747268,0.831142 c -2.922226,3.250216 -5.964956,10.709138 -8.649104,21.20234 l -0.396521,1.550122 -0.628127,0.109489 c -0.922949,0.160878 -3.436422,0.267699 -4.419249,0.187813 z"
       id="path3306"
       inkscape:connector-curvature="0" />
    <path
       style="opacity:1;fill:#aaccff;fill-opacity:1;stroke:none;stroke-width:0.2139979;stroke-miterlimit:4;stroke-dasharray:none;stroke-dashoffset:0;stroke-opacity:1;paint-order:markers fill stroke"
       d="m 145.03464,44.243649 c -0.17314,-0.118407 -0.0986,-0.3849 0.36562,-1.306656 1.42586,-2.831396 2.5193,-6.071705 4.84513,-14.358192 0.88957,-3.169369 1.91976,-6.694005 2.28932,-7.832523 0.80678,-2.485546 1.90789,-5.378051 2.09019,-5.490714 0.22099,-0.136584 2.13272,1.192817 3.24237,2.254728 0.98694,0.944475 2.47816,2.726435 2.47816,2.96132 0,0.05878 -0.35892,0.52327 -0.79759,1.032212 -1.01009,1.171869 -1.72004,2.294929 -2.75111,4.351937 -1.71545,3.422365 -3.81458,9.392726 -5.34705,15.208083 -0.52989,2.010813 -0.86667,3.006629 -1.04258,3.082825 -0.40937,0.177315 -5.13038,0.262536 -5.37246,0.09698 z"
       id="path3308"
       inkscape:connector-curvature="0" />
  </g>
  <g
     inkscape:groupmode="layer"
     id="layer3"
     inkscape:label="top">
    <circle
       style="opacity:1;fill:none;fill-opacity:1;stroke:#000000;stroke-width:0.6907137;stroke-miterlimit:4;stroke-dasharray:none;stroke-dashoffset:0;stroke-opacity:1;paint-order:markers fill stroke"
       id="path2555"
       cx="28.386366"
       cy="52.736031"
       r="15.771706" />
    <circle
       style="opacity:1;fill:none;fill-opacity:1;stroke:#000000;stroke-width:0.6907137;stroke-miterlimit:4;stroke-dasharray:none;stroke-dashoffset:0;stroke-opacity:1;paint-order:markers fill stroke"
       id="path2555-7"
       cx="147.24748"
       cy="28.86915"
       r="15.771708" />
    <path
       style="fill:none;fill-rule:evenodd;stroke:#000000;stroke-width:0.22843915px;stroke-linecap:butt;stroke-linejoin:miter;stroke-opacity:1;marker-end:url(#Arrow1Lend)"
       d="M 42.958305,65.933664 C 152.6091,109.01076 172.84228,65.770494 160.76764,42.437065"
       id="path3313"
       inkscape:connector-curvature="0" />
    <text
       xml:space="preserve"
       style="font-style:normal;font-weight:normal;font-size:3.04585552px;line-height:125%;font-family:sans-serif;letter-spacing:0px;word-spacing:0px;fill:#000000;fill-opacity:1;stroke:none;stroke-width:0.22843915px;stroke-linecap:butt;stroke-linejoin:miter;stroke-opacity:1"
       x="123.40151"
       y="81.76123"
       id="text3363"><tspan
         sodipodi:role="line"
         id="tspan3361"
         x="123.40151"
         y="81.76123"
         style="stroke-width:0.22843915px">$g$</tspan></text>
    <text
       xml:space="preserve"
       style="font-style:normal;font-weight:normal;font-size:3.52777767px;line-height:125%;font-family:sans-serif;letter-spacing:0px;word-spacing:0px;fill:#000000;fill-opacity:1;stroke:none;stroke-width:0.26458332px;stroke-linecap:butt;stroke-linejoin:miter;stroke-opacity:1"
       x="19.087797"
       y="74.750008"
       id="text3405"><tspan
         sodipodi:role="line"
         id="tspan3403"
         x="19.087797"
         y="74.750008"
         style="stroke-width:0.26458332px">$\gamma$</tspan></text>
  </g>
</svg>
